<svg id="visual" viewBox="0 0 960 540" width="960" height="540" xmlns="http://www.w3.org/2000/svg" xmlns:xlink="http://www.w3.org/1999/xlink" version="1.1"><rect x="0" y="0" width="960" height="540" fill="#001220"></rect><path d="M0 463L22.8 462.5C45.7 462 91.3 461 137 465C182.7 469 228.3 478 274 480.7C319.7 483.3 365.3 479.7 411.2 474.2C457 468.7 503 461.3 548.8 460.2C594.7 459 640.3 464 686 467.5C731.7 471 777.3 473 823 474.8C868.7 476.7 914.3 478.3 937.2 479.2L960 480L960 541L937.2 541C914.3 541 868.7 541 823 541C777.3 541 731.7 541 686 541C640.3 541 594.7 541 548.8 541C503 541 457 541 411.2 541C365.3 541 319.7 541 274 541C228.3 541 182.7 541 137 541C91.3 541 45.7 541 22.8 541L0 541Z" fill="#fa7268"></path><path d="M0 499L22.8 499.3C45.7 499.7 91.3 500.3 137 501.5C182.7 502.7 228.3 504.3 274 501.2C319.7 498 365.3 490 411.2 485.3C457 480.7 503 479.3 548.8 479.8C594.7 480.3 640.3 482.7 686 483.3C731.7 484 777.3 483 823 485C868.7 487 914.3 492 937.2 494.5L960 497L960 541L937.2 541C914.3 541 868.7 541 823 541C777.3 541 731.7 541 686 541C640.3 541 594.7 541 548.8 541C503 541 457 541 411.2 541C365.3 541 319.7 541 274 541C228.3 541 182.7 541 137 541C91.3 541 45.7 541 22.8 541L0 541Z" fill="#e34c67"></path><path d="M0 502L22.8 501.7C45.7 501.3 91.3 500.7 137 501.7C182.7 502.7 228.3 505.3 274 506.5C319.7 507.7 365.3 507.3 411.2 506.3C457 505.3 503 503.7 548.8 505.7C594.7 507.7 640.3 513.3 686 513.5C731.7 513.7 777.3 508.3 823 507.8C868.7 507.3 914.3 511.7 937.2 513.8L960 516L960 541L937.2 541C914.3 541 868.7 541 823 541C777.3 541 731.7 541 686 541C640.3 541 594.7 541 548.8 541C503 541 457 541 411.2 541C365.3 541 319.7 541 274 541C228.3 541 182.7 541 137 541C91.3 541 45.7 541 22.8 541L0 541Z" fill="#c62368"></path></svg>